<mxfile host="app.diagrams.net" agent="Mozilla/5.0 (Windows NT 10.0; Win64; x64) AppleWebKit/537.36 (KHTML, like Gecko) Chrome/130.0.0.0 Safari/537.36" version="24.8.2">
  <diagram name="Página-1" id="nEp3XKZHIvh9Z4nqJTiU">
    <mxGraphModel dx="1434" dy="772" grid="1" gridSize="10" guides="1" tooltips="1" connect="1" arrows="1" fold="1" page="1" pageScale="1" pageWidth="1390" pageHeight="980" math="0" shadow="0">
      <root>
        <mxCell id="0" />
        <mxCell id="1" parent="0" />
        <mxCell id="v8q1E7bSoexo-ledSUc--1" value="Usuário" style="shape=umlActor;verticalLabelPosition=bottom;verticalAlign=top;html=1;outlineConnect=0;" parent="1" vertex="1">
          <mxGeometry x="175" y="580" width="30" height="60" as="geometry" />
        </mxCell>
        <mxCell id="v8q1E7bSoexo-ledSUc--21" value="Fazer Login" style="ellipse;whiteSpace=wrap;html=1;" parent="1" vertex="1">
          <mxGeometry x="475" y="80" width="120" height="80" as="geometry" />
        </mxCell>
        <mxCell id="v8q1E7bSoexo-ledSUc--29" value="" style="endArrow=none;html=1;rounded=0;entryX=0;entryY=0.5;entryDx=0;entryDy=0;exitX=1;exitY=0.3333333333333333;exitDx=0;exitDy=0;exitPerimeter=0;" parent="1" source="v8q1E7bSoexo-ledSUc--1" target="v8q1E7bSoexo-ledSUc--21" edge="1">
          <mxGeometry width="50" height="50" relative="1" as="geometry">
            <mxPoint x="275" y="450" as="sourcePoint" />
            <mxPoint x="325" y="400" as="targetPoint" />
          </mxGeometry>
        </mxCell>
        <mxCell id="v8q1E7bSoexo-ledSUc--31" value="Mural" style="ellipse;whiteSpace=wrap;html=1;" parent="1" vertex="1">
          <mxGeometry x="475" y="280" width="120" height="80" as="geometry" />
        </mxCell>
        <mxCell id="v8q1E7bSoexo-ledSUc--32" value="Grade Curricular" style="ellipse;whiteSpace=wrap;html=1;" parent="1" vertex="1">
          <mxGeometry x="475" y="670" width="120" height="80" as="geometry" />
        </mxCell>
        <mxCell id="v8q1E7bSoexo-ledSUc--33" value="Quadro de Horários" style="ellipse;whiteSpace=wrap;html=1;" parent="1" vertex="1">
          <mxGeometry x="475" y="570" width="120" height="80" as="geometry" />
        </mxCell>
        <mxCell id="v8q1E7bSoexo-ledSUc--34" value="Rematrícula Online" style="ellipse;whiteSpace=wrap;html=1;" parent="1" vertex="1">
          <mxGeometry x="475" y="800" width="120" height="80" as="geometry" />
        </mxCell>
        <mxCell id="v8q1E7bSoexo-ledSUc--35" value="Central do Aluno" style="ellipse;whiteSpace=wrap;html=1;" parent="1" vertex="1">
          <mxGeometry x="475" y="930" width="120" height="80" as="geometry" />
        </mxCell>
        <mxCell id="v8q1E7bSoexo-ledSUc--36" value="Secretaria" style="ellipse;whiteSpace=wrap;html=1;" parent="1" vertex="1">
          <mxGeometry x="475" y="1150" width="120" height="80" as="geometry" />
        </mxCell>
        <mxCell id="v8q1E7bSoexo-ledSUc--37" value="Financeiro" style="ellipse;whiteSpace=wrap;html=1;" parent="1" vertex="1">
          <mxGeometry x="475" y="1300" width="120" height="80" as="geometry" />
        </mxCell>
        <mxCell id="v8q1E7bSoexo-ledSUc--41" value="" style="endArrow=none;html=1;rounded=0;entryX=0;entryY=0.5;entryDx=0;entryDy=0;exitX=1;exitY=0.3333333333333333;exitDx=0;exitDy=0;exitPerimeter=0;" parent="1" source="v8q1E7bSoexo-ledSUc--1" target="v8q1E7bSoexo-ledSUc--31" edge="1">
          <mxGeometry width="50" height="50" relative="1" as="geometry">
            <mxPoint x="275" y="450" as="sourcePoint" />
            <mxPoint x="325" y="400" as="targetPoint" />
          </mxGeometry>
        </mxCell>
        <mxCell id="v8q1E7bSoexo-ledSUc--42" value="" style="endArrow=none;html=1;rounded=0;entryX=0;entryY=0.5;entryDx=0;entryDy=0;exitX=1;exitY=0.3333333333333333;exitDx=0;exitDy=0;exitPerimeter=0;" parent="1" source="v8q1E7bSoexo-ledSUc--1" target="v8q1E7bSoexo-ledSUc--32" edge="1">
          <mxGeometry width="50" height="50" relative="1" as="geometry">
            <mxPoint x="275" y="450" as="sourcePoint" />
            <mxPoint x="325" y="400" as="targetPoint" />
          </mxGeometry>
        </mxCell>
        <mxCell id="v8q1E7bSoexo-ledSUc--43" value="" style="endArrow=none;html=1;rounded=0;entryX=0;entryY=0.5;entryDx=0;entryDy=0;exitX=1;exitY=0.3333333333333333;exitDx=0;exitDy=0;exitPerimeter=0;" parent="1" source="v8q1E7bSoexo-ledSUc--1" target="v8q1E7bSoexo-ledSUc--33" edge="1">
          <mxGeometry width="50" height="50" relative="1" as="geometry">
            <mxPoint x="275" y="450" as="sourcePoint" />
            <mxPoint x="325" y="400" as="targetPoint" />
          </mxGeometry>
        </mxCell>
        <mxCell id="v8q1E7bSoexo-ledSUc--44" value="" style="endArrow=none;html=1;rounded=0;entryX=0;entryY=0.5;entryDx=0;entryDy=0;exitX=1;exitY=0.3333333333333333;exitDx=0;exitDy=0;exitPerimeter=0;" parent="1" source="v8q1E7bSoexo-ledSUc--1" target="v8q1E7bSoexo-ledSUc--34" edge="1">
          <mxGeometry width="50" height="50" relative="1" as="geometry">
            <mxPoint x="275" y="450" as="sourcePoint" />
            <mxPoint x="325" y="400" as="targetPoint" />
          </mxGeometry>
        </mxCell>
        <mxCell id="v8q1E7bSoexo-ledSUc--45" value="" style="endArrow=none;html=1;rounded=0;entryX=0;entryY=0.5;entryDx=0;entryDy=0;exitX=1;exitY=0.3333333333333333;exitDx=0;exitDy=0;exitPerimeter=0;" parent="1" source="v8q1E7bSoexo-ledSUc--1" target="v8q1E7bSoexo-ledSUc--35" edge="1">
          <mxGeometry width="50" height="50" relative="1" as="geometry">
            <mxPoint x="275" y="450" as="sourcePoint" />
            <mxPoint x="325" y="400" as="targetPoint" />
          </mxGeometry>
        </mxCell>
        <mxCell id="v8q1E7bSoexo-ledSUc--46" value="" style="endArrow=none;html=1;rounded=0;entryX=0;entryY=0.5;entryDx=0;entryDy=0;exitX=1;exitY=0.3333333333333333;exitDx=0;exitDy=0;exitPerimeter=0;" parent="1" source="v8q1E7bSoexo-ledSUc--1" target="v8q1E7bSoexo-ledSUc--36" edge="1">
          <mxGeometry width="50" height="50" relative="1" as="geometry">
            <mxPoint x="275" y="450" as="sourcePoint" />
            <mxPoint x="325" y="400" as="targetPoint" />
          </mxGeometry>
        </mxCell>
        <mxCell id="v8q1E7bSoexo-ledSUc--48" value="" style="endArrow=none;html=1;rounded=0;entryX=0;entryY=0.5;entryDx=0;entryDy=0;exitX=1;exitY=0.3333333333333333;exitDx=0;exitDy=0;exitPerimeter=0;" parent="1" source="v8q1E7bSoexo-ledSUc--1" target="v8q1E7bSoexo-ledSUc--37" edge="1">
          <mxGeometry width="50" height="50" relative="1" as="geometry">
            <mxPoint x="275" y="450" as="sourcePoint" />
            <mxPoint x="325" y="400" as="targetPoint" />
          </mxGeometry>
        </mxCell>
        <mxCell id="v8q1E7bSoexo-ledSUc--50" value="Avaliação Institucional" style="ellipse;whiteSpace=wrap;html=1;" parent="1" vertex="1">
          <mxGeometry x="475" y="1460" width="120" height="80" as="geometry" />
        </mxCell>
        <mxCell id="v8q1E7bSoexo-ledSUc--51" value="Relatórios" style="ellipse;whiteSpace=wrap;html=1;" parent="1" vertex="1">
          <mxGeometry x="475" y="1620" width="120" height="80" as="geometry" />
        </mxCell>
        <mxCell id="v8q1E7bSoexo-ledSUc--52" value="Outros Serviços" style="ellipse;whiteSpace=wrap;html=1;" parent="1" vertex="1">
          <mxGeometry x="475" y="1740" width="120" height="80" as="geometry" />
        </mxCell>
        <mxCell id="v8q1E7bSoexo-ledSUc--53" value="" style="endArrow=none;html=1;rounded=0;exitX=0;exitY=0.5;exitDx=0;exitDy=0;entryX=1;entryY=0.3333333333333333;entryDx=0;entryDy=0;entryPerimeter=0;" parent="1" source="v8q1E7bSoexo-ledSUc--50" target="v8q1E7bSoexo-ledSUc--1" edge="1">
          <mxGeometry width="50" height="50" relative="1" as="geometry">
            <mxPoint x="475" y="920" as="sourcePoint" />
            <mxPoint x="275" y="450" as="targetPoint" />
          </mxGeometry>
        </mxCell>
        <mxCell id="v8q1E7bSoexo-ledSUc--54" value="" style="endArrow=none;html=1;rounded=0;exitX=0;exitY=0.5;exitDx=0;exitDy=0;entryX=1;entryY=0.3333333333333333;entryDx=0;entryDy=0;entryPerimeter=0;" parent="1" source="v8q1E7bSoexo-ledSUc--51" target="v8q1E7bSoexo-ledSUc--1" edge="1">
          <mxGeometry width="50" height="50" relative="1" as="geometry">
            <mxPoint x="225" y="500" as="sourcePoint" />
            <mxPoint x="225" y="360" as="targetPoint" />
          </mxGeometry>
        </mxCell>
        <mxCell id="v8q1E7bSoexo-ledSUc--55" value="" style="endArrow=none;html=1;rounded=0;exitX=0;exitY=0.5;exitDx=0;exitDy=0;entryX=1;entryY=0.3333333333333333;entryDx=0;entryDy=0;entryPerimeter=0;" parent="1" source="v8q1E7bSoexo-ledSUc--52" target="v8q1E7bSoexo-ledSUc--1" edge="1">
          <mxGeometry width="50" height="50" relative="1" as="geometry">
            <mxPoint x="225" y="500" as="sourcePoint" />
            <mxPoint x="275" y="450" as="targetPoint" />
          </mxGeometry>
        </mxCell>
        <mxCell id="m4IWM7re0CIuDxDTjpuN-1" value="Verificar Senha" style="ellipse;whiteSpace=wrap;html=1;" parent="1" vertex="1">
          <mxGeometry x="755" y="80" width="120" height="80" as="geometry" />
        </mxCell>
        <mxCell id="m4IWM7re0CIuDxDTjpuN-2" value="Erro Login" style="ellipse;whiteSpace=wrap;html=1;" parent="1" vertex="1">
          <mxGeometry x="755" y="180" width="120" height="80" as="geometry" />
        </mxCell>
        <mxCell id="m4IWM7re0CIuDxDTjpuN-6" value="&amp;lt;&amp;lt;extend&amp;gt;&amp;gt;" style="endArrow=open;endSize=12;dashed=1;html=1;rounded=0;entryX=1;entryY=0.5;entryDx=0;entryDy=0;exitX=0;exitY=0.5;exitDx=0;exitDy=0;" parent="1" source="m4IWM7re0CIuDxDTjpuN-2" target="v8q1E7bSoexo-ledSUc--21" edge="1">
          <mxGeometry width="160" relative="1" as="geometry">
            <mxPoint x="755" y="230" as="sourcePoint" />
            <mxPoint x="915" y="230" as="targetPoint" />
          </mxGeometry>
        </mxCell>
        <mxCell id="m4IWM7re0CIuDxDTjpuN-8" value="&lt;span style=&quot;font-size: 12px;&quot;&gt;&amp;lt;&amp;lt;Include&amp;gt;&amp;gt;&lt;/span&gt;" style="endArrow=open;endSize=12;dashed=1;html=1;rounded=0;" parent="1" edge="1">
          <mxGeometry width="160" relative="1" as="geometry">
            <mxPoint x="595" y="120" as="sourcePoint" />
            <mxPoint x="755" y="120" as="targetPoint" />
          </mxGeometry>
        </mxCell>
        <mxCell id="m4IWM7re0CIuDxDTjpuN-10" value="Fazer Rematrícula" style="ellipse;whiteSpace=wrap;html=1;" parent="1" vertex="1">
          <mxGeometry x="755" y="800" width="120" height="80" as="geometry" />
        </mxCell>
        <mxCell id="m4IWM7re0CIuDxDTjpuN-16" value="Cadastro acadêmico" style="ellipse;whiteSpace=wrap;html=1;" parent="1" vertex="1">
          <mxGeometry x="755" y="370" width="120" height="80" as="geometry" />
        </mxCell>
        <mxCell id="m4IWM7re0CIuDxDTjpuN-17" value="&amp;lt;&amp;lt;extend&amp;gt;&amp;gt;" style="endArrow=open;endSize=12;dashed=1;html=1;rounded=0;entryX=1;entryY=0.5;entryDx=0;entryDy=0;exitX=0;exitY=0.5;exitDx=0;exitDy=0;" parent="1" source="m4IWM7re0CIuDxDTjpuN-16" target="v8q1E7bSoexo-ledSUc--31" edge="1">
          <mxGeometry width="160" relative="1" as="geometry">
            <mxPoint x="755" y="340" as="sourcePoint" />
            <mxPoint x="915" y="340" as="targetPoint" />
          </mxGeometry>
        </mxCell>
        <mxCell id="m4IWM7re0CIuDxDTjpuN-18" value="Alterar Senha" style="ellipse;whiteSpace=wrap;html=1;" parent="1" vertex="1">
          <mxGeometry x="755" y="280" width="120" height="80" as="geometry" />
        </mxCell>
        <mxCell id="m4IWM7re0CIuDxDTjpuN-24" value="&amp;lt;&amp;lt;extend&amp;gt;&amp;gt;" style="endArrow=open;endSize=12;dashed=1;html=1;rounded=0;exitX=0;exitY=0.5;exitDx=0;exitDy=0;entryX=1;entryY=0.5;entryDx=0;entryDy=0;" parent="1" source="m4IWM7re0CIuDxDTjpuN-10" target="v8q1E7bSoexo-ledSUc--34" edge="1">
          <mxGeometry width="160" relative="1" as="geometry">
            <mxPoint x="695" y="770" as="sourcePoint" />
            <mxPoint x="855" y="770" as="targetPoint" />
          </mxGeometry>
        </mxCell>
        <mxCell id="m4IWM7re0CIuDxDTjpuN-25" value="&amp;lt;&amp;lt;extend&amp;gt;&amp;gt;" style="endArrow=open;endSize=12;dashed=1;html=1;rounded=0;exitX=0;exitY=0.5;exitDx=0;exitDy=0;entryX=1;entryY=0.5;entryDx=0;entryDy=0;" parent="1" source="m4IWM7re0CIuDxDTjpuN-18" target="v8q1E7bSoexo-ledSUc--31" edge="1">
          <mxGeometry width="160" relative="1" as="geometry">
            <mxPoint x="615" y="280" as="sourcePoint" />
            <mxPoint x="775" y="280" as="targetPoint" />
          </mxGeometry>
        </mxCell>
        <mxCell id="m4IWM7re0CIuDxDTjpuN-26" value="Calendário" style="ellipse;whiteSpace=wrap;html=1;" parent="1" vertex="1">
          <mxGeometry x="475" y="470" width="120" height="80" as="geometry" />
        </mxCell>
        <mxCell id="m4IWM7re0CIuDxDTjpuN-27" value="" style="endArrow=none;html=1;rounded=0;entryX=0;entryY=0.5;entryDx=0;entryDy=0;" parent="1" target="m4IWM7re0CIuDxDTjpuN-26" edge="1">
          <mxGeometry width="50" height="50" relative="1" as="geometry">
            <mxPoint x="205" y="600" as="sourcePoint" />
            <mxPoint x="355" y="550" as="targetPoint" />
          </mxGeometry>
        </mxCell>
        <mxCell id="m4IWM7re0CIuDxDTjpuN-28" value="Disciplinas" style="ellipse;whiteSpace=wrap;html=1;" parent="1" vertex="1">
          <mxGeometry x="755" y="470" width="120" height="80" as="geometry" />
        </mxCell>
        <mxCell id="m4IWM7re0CIuDxDTjpuN-29" value="&amp;lt;&amp;lt;extend&amp;gt;&amp;gt;" style="endArrow=open;endSize=12;dashed=1;html=1;rounded=0;entryX=1;entryY=0.5;entryDx=0;entryDy=0;exitX=0;exitY=0.5;exitDx=0;exitDy=0;" parent="1" source="m4IWM7re0CIuDxDTjpuN-28" target="m4IWM7re0CIuDxDTjpuN-26" edge="1">
          <mxGeometry width="160" relative="1" as="geometry">
            <mxPoint x="755" y="510" as="sourcePoint" />
            <mxPoint x="915" y="510" as="targetPoint" />
            <mxPoint as="offset" />
          </mxGeometry>
        </mxCell>
        <mxCell id="m4IWM7re0CIuDxDTjpuN-30" value="Períodos" style="ellipse;whiteSpace=wrap;html=1;" parent="1" vertex="1">
          <mxGeometry x="755" y="670" width="120" height="80" as="geometry" />
        </mxCell>
        <mxCell id="m4IWM7re0CIuDxDTjpuN-31" value="&amp;lt;&amp;lt;extend&amp;gt;&amp;gt;" style="endArrow=open;endSize=12;dashed=1;html=1;rounded=0;entryX=1;entryY=0.5;entryDx=0;entryDy=0;exitX=0;exitY=0.5;exitDx=0;exitDy=0;" parent="1" source="m4IWM7re0CIuDxDTjpuN-30" target="v8q1E7bSoexo-ledSUc--32" edge="1">
          <mxGeometry width="160" relative="1" as="geometry">
            <mxPoint x="665" y="740" as="sourcePoint" />
            <mxPoint x="825" y="740" as="targetPoint" />
          </mxGeometry>
        </mxCell>
        <mxCell id="m4IWM7re0CIuDxDTjpuN-32" value="Notas" style="ellipse;whiteSpace=wrap;html=1;" parent="1" vertex="1">
          <mxGeometry x="755" y="930" width="120" height="80" as="geometry" />
        </mxCell>
        <mxCell id="m4IWM7re0CIuDxDTjpuN-33" value="Faltas" style="ellipse;whiteSpace=wrap;html=1;" parent="1" vertex="1">
          <mxGeometry x="755" y="1030" width="120" height="80" as="geometry" />
        </mxCell>
        <mxCell id="m4IWM7re0CIuDxDTjpuN-35" value="&amp;lt;&amp;lt;extend&amp;gt;&amp;gt;" style="endArrow=open;endSize=12;dashed=1;html=1;rounded=0;exitX=0;exitY=0.5;exitDx=0;exitDy=0;entryX=1;entryY=0.5;entryDx=0;entryDy=0;" parent="1" source="m4IWM7re0CIuDxDTjpuN-33" target="v8q1E7bSoexo-ledSUc--35" edge="1">
          <mxGeometry width="160" relative="1" as="geometry">
            <mxPoint x="625" y="1030" as="sourcePoint" />
            <mxPoint x="785" y="1030" as="targetPoint" />
          </mxGeometry>
        </mxCell>
        <mxCell id="m4IWM7re0CIuDxDTjpuN-36" value="&amp;lt;&amp;lt;extend&amp;gt;&amp;gt;" style="endArrow=open;endSize=12;dashed=1;html=1;rounded=0;exitX=0;exitY=0.5;exitDx=0;exitDy=0;entryX=1;entryY=0.5;entryDx=0;entryDy=0;" parent="1" source="m4IWM7re0CIuDxDTjpuN-32" target="v8q1E7bSoexo-ledSUc--35" edge="1">
          <mxGeometry width="160" relative="1" as="geometry">
            <mxPoint x="615" y="920" as="sourcePoint" />
            <mxPoint x="775" y="920" as="targetPoint" />
          </mxGeometry>
        </mxCell>
        <mxCell id="m4IWM7re0CIuDxDTjpuN-37" value="Central de Soluções" style="ellipse;whiteSpace=wrap;html=1;" parent="1" vertex="1">
          <mxGeometry x="755" y="1150" width="120" height="80" as="geometry" />
        </mxCell>
        <mxCell id="m4IWM7re0CIuDxDTjpuN-38" value="&amp;lt;&amp;lt;extend&amp;gt;&amp;gt;" style="endArrow=open;endSize=12;dashed=1;html=1;rounded=0;entryX=1;entryY=0.5;entryDx=0;entryDy=0;exitX=0;exitY=0.5;exitDx=0;exitDy=0;" parent="1" source="m4IWM7re0CIuDxDTjpuN-37" target="v8q1E7bSoexo-ledSUc--36" edge="1">
          <mxGeometry width="160" relative="1" as="geometry">
            <mxPoint x="675" y="1180" as="sourcePoint" />
            <mxPoint x="785" y="1190" as="targetPoint" />
          </mxGeometry>
        </mxCell>
        <mxCell id="m4IWM7re0CIuDxDTjpuN-39" value="Realizar Avaliação" style="ellipse;whiteSpace=wrap;html=1;" parent="1" vertex="1">
          <mxGeometry x="755" y="1460" width="120" height="80" as="geometry" />
        </mxCell>
        <mxCell id="m4IWM7re0CIuDxDTjpuN-41" value="&amp;lt;&amp;lt;extend&amp;gt;&amp;gt;" style="endArrow=open;endSize=12;dashed=1;html=1;rounded=0;exitX=0;exitY=0.5;exitDx=0;exitDy=0;entryX=1;entryY=0.5;entryDx=0;entryDy=0;" parent="1" source="m4IWM7re0CIuDxDTjpuN-39" target="v8q1E7bSoexo-ledSUc--50" edge="1">
          <mxGeometry width="160" relative="1" as="geometry">
            <mxPoint x="665" y="1400" as="sourcePoint" />
            <mxPoint x="825" y="1400" as="targetPoint" />
            <mxPoint as="offset" />
          </mxGeometry>
        </mxCell>
        <mxCell id="m4IWM7re0CIuDxDTjpuN-42" value="Emitir Relatório" style="ellipse;whiteSpace=wrap;html=1;" parent="1" vertex="1">
          <mxGeometry x="755" y="1620" width="120" height="80" as="geometry" />
        </mxCell>
        <mxCell id="m4IWM7re0CIuDxDTjpuN-43" value="&amp;lt;&amp;lt;extend&amp;gt;&amp;gt;" style="endArrow=open;endSize=12;dashed=1;html=1;rounded=0;exitX=0;exitY=0.5;exitDx=0;exitDy=0;entryX=1;entryY=0.5;entryDx=0;entryDy=0;" parent="1" source="m4IWM7re0CIuDxDTjpuN-42" target="v8q1E7bSoexo-ledSUc--51" edge="1">
          <mxGeometry width="160" relative="1" as="geometry">
            <mxPoint x="685" y="1560" as="sourcePoint" />
            <mxPoint x="845" y="1560" as="targetPoint" />
          </mxGeometry>
        </mxCell>
        <mxCell id="m4IWM7re0CIuDxDTjpuN-44" value="&lt;span style=&quot;white-space: pre;&quot;&gt;&#x9;&lt;/span&gt;Secretaria" style="shape=umlActor;verticalLabelPosition=bottom;verticalAlign=top;html=1;" parent="1" vertex="1">
          <mxGeometry x="1185" y="580" width="30" height="60" as="geometry" />
        </mxCell>
        <mxCell id="m4IWM7re0CIuDxDTjpuN-53" value="" style="endArrow=none;html=1;rounded=0;entryX=0;entryY=0.3333333333333333;entryDx=0;entryDy=0;entryPerimeter=0;exitX=1;exitY=0.5;exitDx=0;exitDy=0;" parent="1" source="v8q1E7bSoexo-ledSUc--32" target="m4IWM7re0CIuDxDTjpuN-44" edge="1">
          <mxGeometry width="50" height="50" relative="1" as="geometry">
            <mxPoint x="995" y="620" as="sourcePoint" />
            <mxPoint x="1045" y="570" as="targetPoint" />
            <Array as="points">
              <mxPoint x="755" y="600" />
              <mxPoint x="905" y="600" />
            </Array>
          </mxGeometry>
        </mxCell>
        <mxCell id="m4IWM7re0CIuDxDTjpuN-54" value="" style="endArrow=none;html=1;rounded=0;entryX=0;entryY=0.3333333333333333;entryDx=0;entryDy=0;entryPerimeter=0;exitX=1;exitY=0.5;exitDx=0;exitDy=0;" parent="1" source="v8q1E7bSoexo-ledSUc--34" target="m4IWM7re0CIuDxDTjpuN-44" edge="1">
          <mxGeometry width="50" height="50" relative="1" as="geometry">
            <mxPoint x="655" y="780" as="sourcePoint" />
            <mxPoint x="1105" y="690" as="targetPoint" />
            <Array as="points">
              <mxPoint x="745" y="780" />
              <mxPoint x="985" y="780" />
            </Array>
          </mxGeometry>
        </mxCell>
        <mxCell id="m4IWM7re0CIuDxDTjpuN-56" value="" style="endArrow=none;html=1;rounded=0;entryX=0;entryY=0.3333333333333333;entryDx=0;entryDy=0;entryPerimeter=0;exitX=1;exitY=0.5;exitDx=0;exitDy=0;" parent="1" source="v8q1E7bSoexo-ledSUc--36" target="m4IWM7re0CIuDxDTjpuN-44" edge="1">
          <mxGeometry width="50" height="50" relative="1" as="geometry">
            <mxPoint x="955" y="1130" as="sourcePoint" />
            <mxPoint x="1065" y="900" as="targetPoint" />
            <Array as="points">
              <mxPoint x="665" y="1130" />
              <mxPoint x="985" y="1130" />
            </Array>
          </mxGeometry>
        </mxCell>
        <mxCell id="m4IWM7re0CIuDxDTjpuN-58" value="" style="endArrow=none;html=1;rounded=0;entryX=0;entryY=0.3333333333333333;entryDx=0;entryDy=0;entryPerimeter=0;exitX=1;exitY=0.5;exitDx=0;exitDy=0;" parent="1" source="v8q1E7bSoexo-ledSUc--37" target="m4IWM7re0CIuDxDTjpuN-44" edge="1">
          <mxGeometry width="50" height="50" relative="1" as="geometry">
            <mxPoint x="1055" y="1280" as="sourcePoint" />
            <mxPoint x="1165" y="1010" as="targetPoint" />
            <Array as="points">
              <mxPoint x="665" y="1260" />
              <mxPoint x="985" y="1260" />
            </Array>
          </mxGeometry>
        </mxCell>
        <mxCell id="m4IWM7re0CIuDxDTjpuN-59" value="Realizar Pagamento" style="ellipse;whiteSpace=wrap;html=1;" parent="1" vertex="1">
          <mxGeometry x="755" y="1300" width="120" height="80" as="geometry" />
        </mxCell>
        <mxCell id="m4IWM7re0CIuDxDTjpuN-60" value="&amp;lt;&amp;lt;extend&amp;gt;&amp;gt;" style="endArrow=open;endSize=12;dashed=1;html=1;rounded=0;exitX=0;exitY=0.5;exitDx=0;exitDy=0;entryX=1;entryY=0.5;entryDx=0;entryDy=0;" parent="1" source="m4IWM7re0CIuDxDTjpuN-59" target="v8q1E7bSoexo-ledSUc--37" edge="1">
          <mxGeometry width="160" relative="1" as="geometry">
            <mxPoint x="1085" y="1360" as="sourcePoint" />
            <mxPoint x="1245" y="1360" as="targetPoint" />
          </mxGeometry>
        </mxCell>
        <mxCell id="m4IWM7re0CIuDxDTjpuN-61" value="" style="endArrow=none;html=1;rounded=0;entryX=0;entryY=0.3333333333333333;entryDx=0;entryDy=0;entryPerimeter=0;" parent="1" target="m4IWM7re0CIuDxDTjpuN-44" edge="1">
          <mxGeometry width="50" height="50" relative="1" as="geometry">
            <mxPoint x="595" y="1500" as="sourcePoint" />
            <mxPoint x="1175" y="1150" as="targetPoint" />
            <Array as="points">
              <mxPoint x="665" y="1420" />
              <mxPoint x="985" y="1420" />
            </Array>
          </mxGeometry>
        </mxCell>
        <mxCell id="m4IWM7re0CIuDxDTjpuN-62" value="" style="endArrow=none;html=1;rounded=0;entryX=0;entryY=0.3333333333333333;entryDx=0;entryDy=0;entryPerimeter=0;exitX=1;exitY=0.5;exitDx=0;exitDy=0;" parent="1" source="v8q1E7bSoexo-ledSUc--51" target="m4IWM7re0CIuDxDTjpuN-44" edge="1">
          <mxGeometry width="50" height="50" relative="1" as="geometry">
            <mxPoint x="1005" y="1580" as="sourcePoint" />
            <mxPoint x="1285" y="1250" as="targetPoint" />
            <Array as="points">
              <mxPoint x="665" y="1580" />
              <mxPoint x="985" y="1580" />
            </Array>
          </mxGeometry>
        </mxCell>
        <mxCell id="m4IWM7re0CIuDxDTjpuN-64" value="" style="endArrow=none;html=1;rounded=0;entryX=0;entryY=0.3333333333333333;entryDx=0;entryDy=0;entryPerimeter=0;exitX=1;exitY=0.5;exitDx=0;exitDy=0;" parent="1" source="v8q1E7bSoexo-ledSUc--52" target="m4IWM7re0CIuDxDTjpuN-44" edge="1">
          <mxGeometry width="50" height="50" relative="1" as="geometry">
            <mxPoint x="605" y="1780" as="sourcePoint" />
            <mxPoint x="1225" y="940" as="targetPoint" />
            <Array as="points">
              <mxPoint x="1025" y="1780" />
            </Array>
          </mxGeometry>
        </mxCell>
        <mxCell id="m4IWM7re0CIuDxDTjpuN-65" value="" style="endArrow=none;html=1;rounded=0;entryX=0;entryY=0.3333333333333333;entryDx=0;entryDy=0;entryPerimeter=0;exitX=1;exitY=0.5;exitDx=0;exitDy=0;" parent="1" source="m4IWM7re0CIuDxDTjpuN-16" target="m4IWM7re0CIuDxDTjpuN-44" edge="1">
          <mxGeometry width="50" height="50" relative="1" as="geometry">
            <mxPoint x="1065" y="420" as="sourcePoint" />
            <mxPoint x="1135" y="460" as="targetPoint" />
            <Array as="points">
              <mxPoint x="1105" y="410" />
            </Array>
          </mxGeometry>
        </mxCell>
        <mxCell id="m4IWM7re0CIuDxDTjpuN-68" value="" style="swimlane;startSize=0;" parent="1" vertex="1">
          <mxGeometry x="340" width="740" height="1850" as="geometry" />
        </mxCell>
        <mxCell id="m4IWM7re0CIuDxDTjpuN-71" value="PORTAL DO ALUNO" style="text;html=1;align=center;verticalAlign=middle;resizable=0;points=[];autosize=1;strokeColor=none;fillColor=none;" parent="m4IWM7re0CIuDxDTjpuN-68" vertex="1">
          <mxGeometry x="300" width="140" height="30" as="geometry" />
        </mxCell>
      </root>
    </mxGraphModel>
  </diagram>
</mxfile>
